<mxfile host="Electron" modified="2024-05-17T15:27:35.976Z" agent="Mozilla/5.0 (Windows NT 10.0; Win64; x64) AppleWebKit/537.36 (KHTML, like Gecko) draw.io/24.4.0 Chrome/120.0.6099.109 Electron/28.1.0 Safari/537.36" etag="Nb_x-mMCRM16LDFALMJ8" version="24.4.0" type="device">
  <diagram name="Page-1" id="0783ab3e-0a74-02c8-0abd-f7b4e66b4bec">
    <mxGraphModel dx="1416" dy="818" grid="1" gridSize="10" guides="1" tooltips="1" connect="1" arrows="1" fold="1" page="1" pageScale="1" pageWidth="850" pageHeight="1100" background="none" math="0" shadow="0">
      <root>
        <mxCell id="0" />
        <mxCell id="1" parent="0" />
        <mxCell id="1c1d494c118603dd-1" value="FUFleaMarket" style="swimlane;html=1;childLayout=stackLayout;startSize=20;rounded=0;shadow=0;comic=0;labelBackgroundColor=none;strokeWidth=1;fontFamily=Verdana;fontSize=12;align=center;" parent="1" vertex="1">
          <mxGeometry x="50" y="30" width="900" height="990" as="geometry" />
        </mxCell>
        <mxCell id="1c1d494c118603dd-2" value="Buyer" style="swimlane;html=1;startSize=20;" parent="1c1d494c118603dd-1" vertex="1">
          <mxGeometry y="20" width="270" height="970" as="geometry" />
        </mxCell>
        <mxCell id="60571a20871a0731-4" value="" style="ellipse;whiteSpace=wrap;html=1;rounded=0;shadow=0;comic=0;labelBackgroundColor=none;strokeWidth=1;fillColor=#000000;fontFamily=Verdana;fontSize=12;align=center;" parent="1c1d494c118603dd-2" vertex="1">
          <mxGeometry x="90" y="55" width="40" height="40" as="geometry" />
        </mxCell>
        <mxCell id="uPPm4ntmLGDZb36zqtKK-16" value="Điền thông tin đăng nhập" style="rounded=1;whiteSpace=wrap;html=1;" parent="1c1d494c118603dd-2" vertex="1">
          <mxGeometry x="55" y="230" width="140" height="30" as="geometry" />
        </mxCell>
        <mxCell id="uPPm4ntmLGDZb36zqtKK-73" value="Trao đổi với người bán" style="rounded=1;whiteSpace=wrap;html=1;" parent="1c1d494c118603dd-2" vertex="1">
          <mxGeometry x="55" y="522.5" width="140" height="30" as="geometry" />
        </mxCell>
        <mxCell id="60571a20871a0731-5" value="" style="shape=mxgraph.bpmn.shape;html=1;verticalLabelPosition=bottom;labelBackgroundColor=#ffffff;verticalAlign=top;perimeter=ellipsePerimeter;outline=end;symbol=terminate;rounded=0;shadow=0;comic=0;strokeWidth=1;fontFamily=Verdana;fontSize=12;align=center;" parent="1c1d494c118603dd-2" vertex="1">
          <mxGeometry x="120" y="900" width="40" height="40" as="geometry" />
        </mxCell>
        <mxCell id="1c1d494c118603dd-3" value="System" style="swimlane;html=1;startSize=20;" parent="1c1d494c118603dd-1" vertex="1">
          <mxGeometry x="270" y="20" width="380" height="970" as="geometry" />
        </mxCell>
        <mxCell id="uPPm4ntmLGDZb36zqtKK-69" style="edgeStyle=orthogonalEdgeStyle;rounded=0;orthogonalLoop=1;jettySize=auto;html=1;exitX=1;exitY=0.5;exitDx=0;exitDy=0;entryX=1;entryY=0.25;entryDx=0;entryDy=0;" parent="1c1d494c118603dd-3" source="uPPm4ntmLGDZb36zqtKK-13" target="uPPm4ntmLGDZb36zqtKK-28" edge="1">
          <mxGeometry relative="1" as="geometry">
            <mxPoint x="330" y="260" as="targetPoint" />
          </mxGeometry>
        </mxCell>
        <mxCell id="uPPm4ntmLGDZb36zqtKK-71" style="edgeStyle=orthogonalEdgeStyle;rounded=0;orthogonalLoop=1;jettySize=auto;html=1;exitX=0.5;exitY=1;exitDx=0;exitDy=0;entryX=0.5;entryY=0;entryDx=0;entryDy=0;" parent="1c1d494c118603dd-3" source="uPPm4ntmLGDZb36zqtKK-13" target="uPPm4ntmLGDZb36zqtKK-24" edge="1">
          <mxGeometry relative="1" as="geometry" />
        </mxCell>
        <mxCell id="uPPm4ntmLGDZb36zqtKK-13" value="" style="rhombus;whiteSpace=wrap;html=1;" parent="1c1d494c118603dd-3" vertex="1">
          <mxGeometry x="138.5" y="410" width="20" height="50" as="geometry" />
        </mxCell>
        <mxCell id="uPPm4ntmLGDZb36zqtKK-14" value="Họp lệ&amp;nbsp;" style="text;html=1;align=center;verticalAlign=middle;whiteSpace=wrap;rounded=0;" parent="1c1d494c118603dd-3" vertex="1">
          <mxGeometry x="42.5" y="420" width="60" height="30" as="geometry" />
        </mxCell>
        <mxCell id="uPPm4ntmLGDZb36zqtKK-23" value="YES" style="text;html=1;align=center;verticalAlign=middle;whiteSpace=wrap;rounded=0;" parent="1c1d494c118603dd-3" vertex="1">
          <mxGeometry x="158.5" y="470" width="60" height="30" as="geometry" />
        </mxCell>
        <mxCell id="uPPm4ntmLGDZb36zqtKK-49" style="edgeStyle=orthogonalEdgeStyle;rounded=0;orthogonalLoop=1;jettySize=auto;html=1;exitX=0.5;exitY=1;exitDx=0;exitDy=0;entryX=0.5;entryY=0;entryDx=0;entryDy=0;" parent="1c1d494c118603dd-3" source="uPPm4ntmLGDZb36zqtKK-6" target="uPPm4ntmLGDZb36zqtKK-11" edge="1">
          <mxGeometry relative="1" as="geometry" />
        </mxCell>
        <mxCell id="uPPm4ntmLGDZb36zqtKK-6" value="Tìm kiếm sản phẩm" style="rounded=1;whiteSpace=wrap;html=1;" parent="1c1d494c118603dd-3" vertex="1">
          <mxGeometry x="90" y="60" width="117" height="30" as="geometry" />
        </mxCell>
        <mxCell id="uPPm4ntmLGDZb36zqtKK-51" style="edgeStyle=orthogonalEdgeStyle;rounded=0;orthogonalLoop=1;jettySize=auto;html=1;exitX=0.5;exitY=1;exitDx=0;exitDy=0;entryX=0.5;entryY=0;entryDx=0;entryDy=0;" parent="1c1d494c118603dd-3" source="uPPm4ntmLGDZb36zqtKK-11" target="uPPm4ntmLGDZb36zqtKK-28" edge="1">
          <mxGeometry relative="1" as="geometry" />
        </mxCell>
        <mxCell id="uPPm4ntmLGDZb36zqtKK-11" value="View thông tin" style="rounded=1;whiteSpace=wrap;html=1;" parent="1c1d494c118603dd-3" vertex="1">
          <mxGeometry x="92.25" y="140" width="112.5" height="30" as="geometry" />
        </mxCell>
        <mxCell id="uPPm4ntmLGDZb36zqtKK-52" style="edgeStyle=orthogonalEdgeStyle;rounded=0;orthogonalLoop=1;jettySize=auto;html=1;exitX=0.5;exitY=1;exitDx=0;exitDy=0;entryX=0.5;entryY=0;entryDx=0;entryDy=0;" parent="1c1d494c118603dd-3" source="uPPm4ntmLGDZb36zqtKK-28" target="uPPm4ntmLGDZb36zqtKK-33" edge="1">
          <mxGeometry relative="1" as="geometry" />
        </mxCell>
        <mxCell id="uPPm4ntmLGDZb36zqtKK-28" value="Hiện thị form đăng nhập" style="rounded=1;whiteSpace=wrap;html=1;" parent="1c1d494c118603dd-3" vertex="1">
          <mxGeometry x="32.75" y="230" width="231.5" height="30" as="geometry" />
        </mxCell>
        <mxCell id="uPPm4ntmLGDZb36zqtKK-57" style="edgeStyle=orthogonalEdgeStyle;rounded=0;orthogonalLoop=1;jettySize=auto;html=1;exitX=0.5;exitY=1;exitDx=0;exitDy=0;entryX=0.5;entryY=0;entryDx=0;entryDy=0;" parent="1c1d494c118603dd-3" source="uPPm4ntmLGDZb36zqtKK-33" target="uPPm4ntmLGDZb36zqtKK-13" edge="1">
          <mxGeometry relative="1" as="geometry" />
        </mxCell>
        <mxCell id="uPPm4ntmLGDZb36zqtKK-33" value="Kiểm tra thông tin đăng nhập" style="rounded=1;whiteSpace=wrap;html=1;" parent="1c1d494c118603dd-3" vertex="1">
          <mxGeometry x="44" y="310" width="209" height="20" as="geometry" />
        </mxCell>
        <mxCell id="uPPm4ntmLGDZb36zqtKK-70" value="NO" style="text;html=1;align=center;verticalAlign=middle;whiteSpace=wrap;rounded=0;" parent="1c1d494c118603dd-3" vertex="1">
          <mxGeometry x="290" y="320" width="60" height="30" as="geometry" />
        </mxCell>
        <mxCell id="uPPm4ntmLGDZb36zqtKK-24" value="Chọn sản phẩm và thông tin sản phẩm" style="rounded=1;whiteSpace=wrap;html=1;" parent="1c1d494c118603dd-3" vertex="1">
          <mxGeometry x="104.75" y="510" width="87.5" height="55" as="geometry" />
        </mxCell>
        <mxCell id="uPPm4ntmLGDZb36zqtKK-83" value="" style="rounded=0;whiteSpace=wrap;html=1;fillColor=#000000;" parent="1c1d494c118603dd-3" vertex="1">
          <mxGeometry x="32.75" y="630" width="240" height="10" as="geometry" />
        </mxCell>
        <mxCell id="uPPm4ntmLGDZb36zqtKK-85" value="Ghi nhận thông tin đơn hàng" style="rounded=1;whiteSpace=wrap;html=1;" parent="1c1d494c118603dd-3" vertex="1">
          <mxGeometry x="42.5" y="700" width="87.75" height="40" as="geometry" />
        </mxCell>
        <mxCell id="uPPm4ntmLGDZb36zqtKK-87" style="edgeStyle=orthogonalEdgeStyle;rounded=0;orthogonalLoop=1;jettySize=auto;html=1;exitX=0.25;exitY=1;exitDx=0;exitDy=0;entryX=0.575;entryY=-0.075;entryDx=0;entryDy=0;entryPerimeter=0;" parent="1c1d494c118603dd-3" source="uPPm4ntmLGDZb36zqtKK-83" target="uPPm4ntmLGDZb36zqtKK-85" edge="1">
          <mxGeometry relative="1" as="geometry" />
        </mxCell>
        <mxCell id="uPPm4ntmLGDZb36zqtKK-88" value="Gửi thông tin thanh toán" style="rounded=1;whiteSpace=wrap;html=1;" parent="1c1d494c118603dd-3" vertex="1">
          <mxGeometry x="163" y="700" width="90" height="60" as="geometry" />
        </mxCell>
        <mxCell id="uPPm4ntmLGDZb36zqtKK-92" value="" style="endArrow=classic;html=1;rounded=0;exitX=0.697;exitY=1;exitDx=0;exitDy=0;exitPerimeter=0;entryX=0.433;entryY=-0.017;entryDx=0;entryDy=0;entryPerimeter=0;" parent="1c1d494c118603dd-3" source="uPPm4ntmLGDZb36zqtKK-83" target="uPPm4ntmLGDZb36zqtKK-88" edge="1">
          <mxGeometry width="50" height="50" relative="1" as="geometry">
            <mxPoint x="110" y="640" as="sourcePoint" />
            <mxPoint x="160" y="590" as="targetPoint" />
          </mxGeometry>
        </mxCell>
        <mxCell id="uPPm4ntmLGDZb36zqtKK-93" value="Cập nhật tình trạng thanh toán" style="rounded=1;whiteSpace=wrap;html=1;" parent="1c1d494c118603dd-3" vertex="1">
          <mxGeometry x="152" y="790" width="112" height="50" as="geometry" />
        </mxCell>
        <mxCell id="uPPm4ntmLGDZb36zqtKK-101" value="" style="rounded=0;whiteSpace=wrap;html=1;fillColor=#000000;" parent="1c1d494c118603dd-3" vertex="1">
          <mxGeometry x="30" y="860" width="278.5" height="10" as="geometry" />
        </mxCell>
        <mxCell id="uPPm4ntmLGDZb36zqtKK-102" value="Gửi mail thông báo cho buyer" style="rounded=1;whiteSpace=wrap;html=1;" parent="1c1d494c118603dd-3" vertex="1">
          <mxGeometry x="120" y="890" width="120" height="60" as="geometry" />
        </mxCell>
        <mxCell id="uPPm4ntmLGDZb36zqtKK-106" value="" style="endArrow=classic;html=1;rounded=0;exitX=0.5;exitY=1;exitDx=0;exitDy=0;entryX=0.201;entryY=-0.4;entryDx=0;entryDy=0;entryPerimeter=0;" parent="1c1d494c118603dd-3" source="uPPm4ntmLGDZb36zqtKK-85" target="uPPm4ntmLGDZb36zqtKK-101" edge="1">
          <mxGeometry width="50" height="50" relative="1" as="geometry">
            <mxPoint x="90" y="640" as="sourcePoint" />
            <mxPoint x="140" y="590" as="targetPoint" />
          </mxGeometry>
        </mxCell>
        <mxCell id="uPPm4ntmLGDZb36zqtKK-107" style="edgeStyle=orthogonalEdgeStyle;rounded=0;orthogonalLoop=1;jettySize=auto;html=1;exitX=0.5;exitY=1;exitDx=0;exitDy=0;entryX=0.621;entryY=0;entryDx=0;entryDy=0;entryPerimeter=0;" parent="1c1d494c118603dd-3" source="uPPm4ntmLGDZb36zqtKK-93" target="uPPm4ntmLGDZb36zqtKK-101" edge="1">
          <mxGeometry relative="1" as="geometry" />
        </mxCell>
        <mxCell id="uPPm4ntmLGDZb36zqtKK-108" style="edgeStyle=orthogonalEdgeStyle;rounded=0;orthogonalLoop=1;jettySize=auto;html=1;exitX=0.5;exitY=1;exitDx=0;exitDy=0;entryX=0.408;entryY=0.033;entryDx=0;entryDy=0;entryPerimeter=0;" parent="1c1d494c118603dd-3" source="uPPm4ntmLGDZb36zqtKK-101" target="uPPm4ntmLGDZb36zqtKK-102" edge="1">
          <mxGeometry relative="1" as="geometry" />
        </mxCell>
        <mxCell id="1c1d494c118603dd-4" value="Seller" style="swimlane;html=1;startSize=20;" parent="1c1d494c118603dd-1" vertex="1">
          <mxGeometry x="650" y="20" width="250" height="970" as="geometry" />
        </mxCell>
        <mxCell id="uPPm4ntmLGDZb36zqtKK-98" style="edgeStyle=orthogonalEdgeStyle;rounded=0;orthogonalLoop=1;jettySize=auto;html=1;exitX=0.5;exitY=1;exitDx=0;exitDy=0;entryX=0.5;entryY=0;entryDx=0;entryDy=0;" parent="1c1d494c118603dd-4" source="uPPm4ntmLGDZb36zqtKK-96" target="uPPm4ntmLGDZb36zqtKK-97" edge="1">
          <mxGeometry relative="1" as="geometry" />
        </mxCell>
        <mxCell id="uPPm4ntmLGDZb36zqtKK-96" value="Xử lý thanh toán" style="rounded=1;whiteSpace=wrap;html=1;" parent="1c1d494c118603dd-4" vertex="1">
          <mxGeometry x="40" y="690" width="120" height="60" as="geometry" />
        </mxCell>
        <mxCell id="uPPm4ntmLGDZb36zqtKK-97" value="xuất hóa đơn" style="rounded=1;whiteSpace=wrap;html=1;" parent="1c1d494c118603dd-4" vertex="1">
          <mxGeometry x="40" y="770" width="120" height="60" as="geometry" />
        </mxCell>
        <mxCell id="uPPm4ntmLGDZb36zqtKK-50" style="edgeStyle=orthogonalEdgeStyle;rounded=0;orthogonalLoop=1;jettySize=auto;html=1;exitX=1;exitY=0.5;exitDx=0;exitDy=0;entryX=0;entryY=0.5;entryDx=0;entryDy=0;" parent="1c1d494c118603dd-1" source="60571a20871a0731-4" target="uPPm4ntmLGDZb36zqtKK-6" edge="1">
          <mxGeometry relative="1" as="geometry" />
        </mxCell>
        <mxCell id="uPPm4ntmLGDZb36zqtKK-53" style="edgeStyle=orthogonalEdgeStyle;rounded=0;orthogonalLoop=1;jettySize=auto;html=1;exitX=0;exitY=0.5;exitDx=0;exitDy=0;entryX=1;entryY=0.5;entryDx=0;entryDy=0;" parent="1c1d494c118603dd-1" source="uPPm4ntmLGDZb36zqtKK-28" target="uPPm4ntmLGDZb36zqtKK-16" edge="1">
          <mxGeometry relative="1" as="geometry" />
        </mxCell>
        <mxCell id="uPPm4ntmLGDZb36zqtKK-54" style="edgeStyle=orthogonalEdgeStyle;rounded=0;orthogonalLoop=1;jettySize=auto;html=1;exitX=0.5;exitY=1;exitDx=0;exitDy=0;entryX=0;entryY=0.5;entryDx=0;entryDy=0;" parent="1c1d494c118603dd-1" source="uPPm4ntmLGDZb36zqtKK-16" target="uPPm4ntmLGDZb36zqtKK-33" edge="1">
          <mxGeometry relative="1" as="geometry" />
        </mxCell>
        <mxCell id="uPPm4ntmLGDZb36zqtKK-77" style="edgeStyle=orthogonalEdgeStyle;rounded=0;orthogonalLoop=1;jettySize=auto;html=1;exitX=0;exitY=0.5;exitDx=0;exitDy=0;entryX=1;entryY=0.5;entryDx=0;entryDy=0;" parent="1c1d494c118603dd-1" source="uPPm4ntmLGDZb36zqtKK-24" target="uPPm4ntmLGDZb36zqtKK-73" edge="1">
          <mxGeometry relative="1" as="geometry" />
        </mxCell>
        <mxCell id="uPPm4ntmLGDZb36zqtKK-84" style="edgeStyle=orthogonalEdgeStyle;rounded=0;orthogonalLoop=1;jettySize=auto;html=1;exitX=0.5;exitY=1;exitDx=0;exitDy=0;entryX=0.5;entryY=0;entryDx=0;entryDy=0;" parent="1c1d494c118603dd-1" source="uPPm4ntmLGDZb36zqtKK-73" target="uPPm4ntmLGDZb36zqtKK-83" edge="1">
          <mxGeometry relative="1" as="geometry" />
        </mxCell>
        <mxCell id="uPPm4ntmLGDZb36zqtKK-99" style="edgeStyle=orthogonalEdgeStyle;rounded=0;orthogonalLoop=1;jettySize=auto;html=1;exitX=1;exitY=0.5;exitDx=0;exitDy=0;entryX=0;entryY=0.75;entryDx=0;entryDy=0;" parent="1c1d494c118603dd-1" source="uPPm4ntmLGDZb36zqtKK-88" target="uPPm4ntmLGDZb36zqtKK-96" edge="1">
          <mxGeometry relative="1" as="geometry" />
        </mxCell>
        <mxCell id="uPPm4ntmLGDZb36zqtKK-100" style="edgeStyle=orthogonalEdgeStyle;rounded=0;orthogonalLoop=1;jettySize=auto;html=1;exitX=0;exitY=0.75;exitDx=0;exitDy=0;entryX=1;entryY=0.5;entryDx=0;entryDy=0;" parent="1c1d494c118603dd-1" source="uPPm4ntmLGDZb36zqtKK-97" target="uPPm4ntmLGDZb36zqtKK-93" edge="1">
          <mxGeometry relative="1" as="geometry" />
        </mxCell>
        <mxCell id="uPPm4ntmLGDZb36zqtKK-110" style="edgeStyle=orthogonalEdgeStyle;rounded=0;orthogonalLoop=1;jettySize=auto;html=1;exitX=0;exitY=0.5;exitDx=0;exitDy=0;entryX=1;entryY=0.5;entryDx=0;entryDy=0;" parent="1c1d494c118603dd-1" source="uPPm4ntmLGDZb36zqtKK-102" target="60571a20871a0731-5" edge="1">
          <mxGeometry relative="1" as="geometry" />
        </mxCell>
      </root>
    </mxGraphModel>
  </diagram>
</mxfile>
